<svg xmlns="http://www.w3.org/2000/svg" xmlns:xlink="http://www.w3.org/1999/xlink" xmlns:inkscape="http://www.inkscape.org/namespaces/inkscape" version="1.1" width="232.14563" height="177.04062" viewBox="0 0 232.14563 177.04062">
<defs>
<clipPath id="clip_1">
<path transform="matrix(1,0,0,-1,0,177.04062)" d="M42.715627 37.91875H224.94562V157.91875H42.715627Z"/>
</clipPath>
<clipPath id="clip_2">
<path transform="matrix(1,0,0,-1,0,177.04062)" d="M42.715627 37.91875H224.94562V157.91875H42.715627Z"/>
</clipPath>
<clipPath id="clip_3">
<path transform="matrix(1,0,0,-1,0,177.04062)" d="M42.715627 37.91875H224.94562V157.91875H42.715627Z"/>
</clipPath>
<clipPath id="clip_4">
<path transform="matrix(1,0,0,-1,0,177.04062)" d="M42.715627 37.91875H224.94562V157.91875H42.715627Z"/>
</clipPath>
<clipPath id="clip_5">
<path transform="matrix(1,0,0,-1,0,177.04062)" d="M42.715627 37.91875H224.94562V157.91875H42.715627Z"/>
</clipPath>
<clipPath id="clip_6">
<path transform="matrix(1,0,0,-1,0,177.04062)" d="M42.715627 37.91875H224.94562V157.91875H42.715627Z"/>
</clipPath>
<clipPath id="clip_7">
<path transform="matrix(1,0,0,-1,0,177.04062)" d="M42.715627 37.91875H224.94562V157.91875H42.715627Z"/>
</clipPath>
<clipPath id="clip_8">
<path transform="matrix(1,0,0,-1,0,177.04062)" d="M42.715627 37.91875H224.94562V157.91875H42.715627Z"/>
</clipPath>
<clipPath id="clip_9">
<path transform="matrix(1,0,0,-1,0,177.04062)" d="M42.715627 37.91875H224.94562V157.91875H42.715627Z"/>
</clipPath>
<clipPath id="clip_10">
<path transform="matrix(1,0,0,-1,0,177.04062)" d="M42.715627 37.91875H224.94562V157.91875H42.715627Z"/>
</clipPath>
<clipPath id="clip_11">
<path transform="matrix(1,0,0,-1,0,177.04062)" d="M42.715627 37.91875H224.94562V157.91875H42.715627Z"/>
</clipPath>
<clipPath id="clip_12">
<path transform="matrix(1,0,0,-1,0,177.04062)" d="M42.715627 37.91875H224.94562V157.91875H42.715627Z"/>
</clipPath>
<clipPath id="clip_13">
<path transform="matrix(1,0,0,-1,42.715627,133.66733)" d="M-8-5H8V5H-8Z"/>
</clipPath>
<clipPath id="clip_14">
<path transform="matrix(1,0,0,-1,134.75098,132.8793)" d="M-8-5H8V5H-8Z"/>
</clipPath>
<clipPath id="clip_15">
<path transform="matrix(1,0,0,-1,180.76865,131.25946)" d="M-8-5H8V5H-8Z"/>
</clipPath>
<clipPath id="clip_16">
<path transform="matrix(1,0,0,-1,208.37926,126.1212)" d="M-8-5H8V5H-8Z"/>
</clipPath>
<clipPath id="clip_17">
<path transform="matrix(1,0,0,-1,217.5828,117.074008)" d="M-8-5H8V5H-8Z"/>
</clipPath>
<clipPath id="clip_18">
<path transform="matrix(1,0,0,-1,223.10492,91.454189)" d="M-8-5H8V5H-8Z"/>
</clipPath>
<clipPath id="clip_19">
<path transform="matrix(1,0,0,-1,224.94564,61.558687)" d="M-8-5H8V5H-8Z"/>
</clipPath>
<clipPath id="clip_20">
<path transform="matrix(1,0,0,-1,0,177.04062)" d="M42.715627 37.91875H224.94562V157.91875H42.715627Z"/>
</clipPath>
<clipPath id="clip_21">
<path transform="matrix(1,0,0,-1,42.715627,133.44643)" d="M-8-5H8V5H-8Z"/>
</clipPath>
<clipPath id="clip_22">
<path transform="matrix(1,0,0,-1,134.75098,132.65018)" d="M-8-5H8V5H-8Z"/>
</clipPath>
<clipPath id="clip_23">
<path transform="matrix(1,0,0,-1,180.76865,131.01393)" d="M-8-5H8V5H-8Z"/>
</clipPath>
<clipPath id="clip_24">
<path transform="matrix(1,0,0,-1,208.37926,125.82768)" d="M-8-5H8V5H-8Z"/>
</clipPath>
<clipPath id="clip_25">
<path transform="matrix(1,0,0,-1,217.5828,116.708789)" d="M-8-5H8V5H-8Z"/>
</clipPath>
<clipPath id="clip_26">
<path transform="matrix(1,0,0,-1,223.10492,90.9669)" d="M-8-5H8V5H-8Z"/>
</clipPath>
<clipPath id="clip_27">
<path transform="matrix(1,0,0,-1,224.94564,61.105615)" d="M-8-5H8V5H-8Z"/>
</clipPath>
<clipPath id="clip_28">
<path transform="matrix(1,0,0,-1,0,177.04062)" d="M42.715627 37.91875H224.94562V157.91875H42.715627Z"/>
</clipPath>
<clipPath id="clip_29">
<path transform="matrix(1,0,0,-1,0,177.04062)" d="M42.715627 37.91875H224.94562V157.91875H42.715627Z"/>
</clipPath>
<clipPath id="clip_30">
<path transform="matrix(1,0,0,-1,42.715627,133.16138)" d="M-8-5H8V5H-8Z"/>
</clipPath>
<clipPath id="clip_31">
<path transform="matrix(1,0,0,-1,134.75098,132.2859)" d="M-8-5H8V5H-8Z"/>
</clipPath>
<clipPath id="clip_32">
<path transform="matrix(1,0,0,-1,180.76865,130.00142)" d="M-8-5H8V5H-8Z"/>
</clipPath>
<clipPath id="clip_33">
<path transform="matrix(1,0,0,-1,208.37926,125.11293)" d="M-8-5H8V5H-8Z"/>
</clipPath>
<clipPath id="clip_34">
<path transform="matrix(1,0,0,-1,217.5828,115.82866)" d="M-8-5H8V5H-8Z"/>
</clipPath>
<clipPath id="clip_35">
<path transform="matrix(1,0,0,-1,223.10492,91.283679)" d="M-8-5H8V5H-8Z"/>
</clipPath>
<clipPath id="clip_36">
<path transform="matrix(1,0,0,-1,224.94564,24.576416)" d="M-8-5H8V5H-8Z"/>
</clipPath>
<clipPath id="clip_37">
<path transform="matrix(1,0,0,-1,0,177.04062)" d="M42.715627 37.91875H224.94562V157.91875H42.715627Z"/>
</clipPath>
<clipPath id="clip_38">
<path transform="matrix(1,0,0,-1,42.715627,132.14133)" d="M-8-5H8V5H-8Z"/>
</clipPath>
<clipPath id="clip_39">
<path transform="matrix(1,0,0,-1,134.75098,131.20932)" d="M-8-5H8V5H-8Z"/>
</clipPath>
<clipPath id="clip_40">
<path transform="matrix(1,0,0,-1,180.76865,129.22747)" d="M-8-5H8V5H-8Z"/>
</clipPath>
<clipPath id="clip_41">
<path transform="matrix(1,0,0,-1,208.37926,123.82465)" d="M-8-5H8V5H-8Z"/>
</clipPath>
<clipPath id="clip_42">
<path transform="matrix(1,0,0,-1,217.5828,114.85489)" d="M-8-5H8V5H-8Z"/>
</clipPath>
<clipPath id="clip_43">
<path transform="matrix(1,0,0,-1,223.10492,90.353359)" d="M-8-5H8V5H-8Z"/>
</clipPath>
<clipPath id="clip_44">
<path transform="matrix(1,0,0,-1,224.94564,24.576409)" d="M-8-5H8V5H-8Z"/>
</clipPath>
<clipPath id="clip_45">
<path transform="matrix(1,0,0,-1,0,177.04062)" d="M42.715627 37.91875H224.94562V157.91875H42.715627Z"/>
</clipPath>
<clipPath id="clip_46">
<path transform="matrix(1,0,0,-1,42.715627,133.55687)" d="M-7-7H7V7H-7Z"/>
</clipPath>
<clipPath id="clip_47">
<path transform="matrix(1,0,0,-1,134.75098,132.76474)" d="M-7-7H7V7H-7Z"/>
</clipPath>
<clipPath id="clip_48">
<path transform="matrix(1,0,0,-1,180.76865,131.13669)" d="M-7-7H7V7H-7Z"/>
</clipPath>
<clipPath id="clip_49">
<path transform="matrix(1,0,0,-1,208.37926,125.974437)" d="M-7-7H7V7H-7Z"/>
</clipPath>
<clipPath id="clip_50">
<path transform="matrix(1,0,0,-1,217.5828,116.89139)" d="M-7-7H7V7H-7Z"/>
</clipPath>
<clipPath id="clip_51">
<path transform="matrix(1,0,0,-1,223.10492,91.21054)" d="M-7-7H7V7H-7Z"/>
</clipPath>
<clipPath id="clip_52">
<path transform="matrix(1,0,0,-1,224.94564,61.332147)" d="M-7-7H7V7H-7Z"/>
</clipPath>
<clipPath id="clip_53">
<path transform="matrix(1,0,0,-1,0,177.04062)" d="M42.715627 37.91875H224.94562V157.91875H42.715627Z"/>
</clipPath>
<clipPath id="clip_54">
<path transform="matrix(1,0,0,-1,42.715627,132.65135)" d="M-7-7H7V7H-7Z"/>
</clipPath>
<clipPath id="clip_55">
<path transform="matrix(1,0,0,-1,134.75098,131.7476)" d="M-7-7H7V7H-7Z"/>
</clipPath>
<clipPath id="clip_56">
<path transform="matrix(1,0,0,-1,180.76865,129.61444)" d="M-7-7H7V7H-7Z"/>
</clipPath>
<clipPath id="clip_57">
<path transform="matrix(1,0,0,-1,208.37926,124.46879)" d="M-7-7H7V7H-7Z"/>
</clipPath>
<clipPath id="clip_58">
<path transform="matrix(1,0,0,-1,217.5828,115.341777)" d="M-7-7H7V7H-7Z"/>
</clipPath>
<clipPath id="clip_59">
<path transform="matrix(1,0,0,-1,223.10492,90.81852)" d="M-7-7H7V7H-7Z"/>
</clipPath>
<clipPath id="clip_60">
<path transform="matrix(1,0,0,-1,224.94564,24.576416)" d="M-7-7H7V7H-7Z"/>
</clipPath>
</defs>
<path transform="matrix(1,0,0,-1,0,177.04062)" d="M0 0H232.14563V177.04062H0Z" fill="#ffffff"/>
<path transform="matrix(1,0,0,-1,0,177.04062)" d="M42.715627 37.91875H224.94562V157.91875H42.715627Z" fill="#ffffff"/>
<g clip-path="url(#clip_1)">
<path transform="matrix(1,0,0,-1,0,177.04062)" stroke-width=".7" stroke-linecap="butt" stroke-dasharray=".7,1.155" stroke-linejoin="round" fill="none" stroke="#c9d5df" stroke-opacity=".85" d="M189.9722 37.91875V157.91875"/>
</g>
<path transform="matrix(1,0,0,-1,0,177.04062)" d="M189.9722 37.91875V34.41875"/>
<path transform="matrix(1,0,0,-1,0,177.04062)" stroke-width=".8" stroke-linecap="butt" stroke-linejoin="round" fill="none" stroke="#000000" d="M189.9722 37.91875V34.41875"/>
<text xml:space="preserve" transform="matrix(1 0 -0 1 187.26906 152.96562)" font-size="8.5" font-family="DejaVu Sans"><tspan y="0" x="0">2</tspan></text>
<g clip-path="url(#clip_2)">
<path transform="matrix(1,0,0,-1,0,177.04062)" stroke-width=".7" stroke-linecap="butt" stroke-dasharray=".7,1.155" stroke-linejoin="round" fill="none" stroke="#c9d5df" stroke-opacity=".85" d="M153.15805 37.91875V157.91875"/>
</g>
<path transform="matrix(1,0,0,-1,0,177.04062)" d="M153.15805 37.91875V34.41875"/>
<path transform="matrix(1,0,0,-1,0,177.04062)" stroke-width=".8" stroke-linecap="butt" stroke-linejoin="round" fill="none" stroke="#000000" d="M153.15805 37.91875V34.41875"/>
<text xml:space="preserve" transform="matrix(1 0 -0 1 150.45493 152.96562)" font-size="8.5" font-family="DejaVu Sans"><tspan y="0" x="0">4</tspan></text>
<g clip-path="url(#clip_3)">
<path transform="matrix(1,0,0,-1,0,177.04062)" stroke-width=".7" stroke-linecap="butt" stroke-dasharray=".7,1.155" stroke-linejoin="round" fill="none" stroke="#c9d5df" stroke-opacity=".85" d="M116.34391 37.91875V157.91875"/>
</g>
<path transform="matrix(1,0,0,-1,0,177.04062)" d="M116.34391 37.91875V34.41875"/>
<path transform="matrix(1,0,0,-1,0,177.04062)" stroke-width=".8" stroke-linecap="butt" stroke-linejoin="round" fill="none" stroke="#000000" d="M116.34391 37.91875V34.41875"/>
<text xml:space="preserve" transform="matrix(1 0 -0 1 113.640789 152.96562)" font-size="8.5" font-family="DejaVu Sans"><tspan y="0" x="0">6</tspan></text>
<g clip-path="url(#clip_4)">
<path transform="matrix(1,0,0,-1,0,177.04062)" stroke-width=".7" stroke-linecap="butt" stroke-dasharray=".7,1.155" stroke-linejoin="round" fill="none" stroke="#c9d5df" stroke-opacity=".85" d="M79.52976 37.91875V157.91875"/>
</g>
<path transform="matrix(1,0,0,-1,0,177.04062)" d="M79.52976 37.91875V34.41875"/>
<path transform="matrix(1,0,0,-1,0,177.04062)" stroke-width=".8" stroke-linecap="butt" stroke-linejoin="round" fill="none" stroke="#000000" d="M79.52976 37.91875V34.41875"/>
<text xml:space="preserve" transform="matrix(1 0 -0 1 76.826648 152.96562)" font-size="8.5" font-family="DejaVu Sans"><tspan y="0" x="0">8</tspan></text>
<g clip-path="url(#clip_5)">
<path transform="matrix(1,0,0,-1,0,177.04062)" stroke-width=".7" stroke-linecap="butt" stroke-dasharray=".7,1.155" stroke-linejoin="round" fill="none" stroke="#c9d5df" stroke-opacity=".85" d="M42.715627 37.91875V157.91875"/>
</g>
<path transform="matrix(1,0,0,-1,0,177.04062)" d="M42.715627 37.91875V34.41875"/>
<path transform="matrix(1,0,0,-1,0,177.04062)" stroke-width=".8" stroke-linecap="butt" stroke-linejoin="round" fill="none" stroke="#000000" d="M42.715627 37.91875V34.41875"/>
<text xml:space="preserve" transform="matrix(1 0 -0 1 37.309377 152.96562)" font-size="8.5" font-family="DejaVu Sans"><tspan y="0" x="0 5.406">10</tspan></text>
<text xml:space="preserve" transform="matrix(1 0 -0 1 96.33063 166.84062)" font-size="10" font-family="DejaVu Sans"><tspan y="-.703125" x="0 6.1083986 12.260742 22.001954 28.34961 34.501955 38.61328 44.74121 48.66211 55 59.11133 65.26367">Temperature </tspan></text>
<text xml:space="preserve" transform="matrix(1 0 -0 1 96.33063 166.84062)" font-size="10" font-family="DejaVu Sans" font-style="italic"><tspan y="-.703125" x="68.44238">&#x03c4;</tspan></text>
<g clip-path="url(#clip_6)">
<path transform="matrix(1,0,0,-1,0,177.04062)" stroke-width=".7" stroke-linecap="butt" stroke-dasharray=".7,1.155" stroke-linejoin="round" fill="none" stroke="#c9d5df" stroke-opacity=".85" d="M42.715627 52.417135H224.94562"/>
</g>
<path transform="matrix(1,0,0,-1,0,177.04062)" d="M42.715627 52.417135H39.215627"/>
<path transform="matrix(1,0,0,-1,0,177.04062)" stroke-width=".8" stroke-linecap="butt" stroke-linejoin="round" fill="none" stroke="#000000" d="M42.715627 52.417135H39.215627"/>
<text xml:space="preserve" transform="matrix(1 0 -0 1 22.2 128.04537)" font-size="8.5" font-family="DejaVu Sans"><tspan y="0" x="0 5.406 8.109">0.2</tspan></text>
<g clip-path="url(#clip_7)">
<path transform="matrix(1,0,0,-1,0,177.04062)" stroke-width=".7" stroke-linecap="butt" stroke-dasharray=".7,1.155" stroke-linejoin="round" fill="none" stroke="#c9d5df" stroke-opacity=".85" d="M42.715627 77.4289H224.94562"/>
</g>
<path transform="matrix(1,0,0,-1,0,177.04062)" d="M42.715627 77.4289H39.215627"/>
<path transform="matrix(1,0,0,-1,0,177.04062)" stroke-width=".8" stroke-linecap="butt" stroke-linejoin="round" fill="none" stroke="#000000" d="M42.715627 77.4289H39.215627"/>
<text xml:space="preserve" transform="matrix(1 0 -0 1 22.2 103.03359)" font-size="8.5" font-family="DejaVu Sans"><tspan y="0" x="0 5.406 8.109">0.4</tspan></text>
<g clip-path="url(#clip_8)">
<path transform="matrix(1,0,0,-1,0,177.04062)" stroke-width=".7" stroke-linecap="butt" stroke-dasharray=".7,1.155" stroke-linejoin="round" fill="none" stroke="#c9d5df" stroke-opacity=".85" d="M42.715627 102.44067H224.94562"/>
</g>
<path transform="matrix(1,0,0,-1,0,177.04062)" d="M42.715627 102.44067H39.215627"/>
<path transform="matrix(1,0,0,-1,0,177.04062)" stroke-width=".8" stroke-linecap="butt" stroke-linejoin="round" fill="none" stroke="#000000" d="M42.715627 102.44067H39.215627"/>
<text xml:space="preserve" transform="matrix(1 0 -0 1 22.2 78.02183)" font-size="8.5" font-family="DejaVu Sans"><tspan y="0" x="0 5.406 8.109">0.6</tspan></text>
<g clip-path="url(#clip_9)">
<path transform="matrix(1,0,0,-1,0,177.04062)" stroke-width=".7" stroke-linecap="butt" stroke-dasharray=".7,1.155" stroke-linejoin="round" fill="none" stroke="#c9d5df" stroke-opacity=".85" d="M42.715627 127.45244H224.94562"/>
</g>
<path transform="matrix(1,0,0,-1,0,177.04062)" d="M42.715627 127.45244H39.215627"/>
<path transform="matrix(1,0,0,-1,0,177.04062)" stroke-width=".8" stroke-linecap="butt" stroke-linejoin="round" fill="none" stroke="#000000" d="M42.715627 127.45244H39.215627"/>
<text xml:space="preserve" transform="matrix(1 0 -0 1 22.2 53.010057)" font-size="8.5" font-family="DejaVu Sans"><tspan y="0" x="0 5.406 8.109">0.8</tspan></text>
<g clip-path="url(#clip_10)">
<path transform="matrix(1,0,0,-1,0,177.04062)" stroke-width=".7" stroke-linecap="butt" stroke-dasharray=".7,1.155" stroke-linejoin="round" fill="none" stroke="#c9d5df" stroke-opacity=".85" d="M42.715627 152.4642H224.94562"/>
</g>
<path transform="matrix(1,0,0,-1,0,177.04062)" d="M42.715627 152.4642H39.215627"/>
<path transform="matrix(1,0,0,-1,0,177.04062)" stroke-width=".8" stroke-linecap="butt" stroke-linejoin="round" fill="none" stroke="#000000" d="M42.715627 152.4642H39.215627"/>
<text xml:space="preserve" transform="matrix(1 0 -0 1 22.2 27.998291)" font-size="8.5" font-family="DejaVu Sans"><tspan y="0" x="0 5.406 8.109">1.0</tspan></text>
<text xml:space="preserve" transform="matrix(0 -1 1 0 15.2 126.12187)" font-size="10" font-family="DejaVu Sans"><tspan y="-.40625" x="0 6.982422 13.110352 19.458008 22.636719 32.37793 38.50586 43.71582 48.92578 52.104494">Cap mass (</tspan></text>
<text xml:space="preserve" transform="matrix(0 -1 1 0 15.2 126.12187)" font-size="10" font-family="DejaVu Sans" font-style="italic"><tspan y="-.40625" x="56.00586">&#x03b5;</tspan></text>
<text xml:space="preserve" transform="matrix(0 -1 1 0 15.2 126.12187)" font-size="10" font-family="DejaVu Sans"><tspan y="-.40625" x="63.359376 73.68652 80.04883 83.22754 89.58984">=0.5)</tspan></text>
<g clip-path="url(#clip_11)">
<path transform="matrix(1,0,0,-1,0,177.04062)" stroke-width="1.2" stroke-linecap="butt" stroke-linejoin="round" fill="none" stroke="#355f8d" d="M42.715627 43.373296V43.594194"/>
<path transform="matrix(1,0,0,-1,0,177.04062)" stroke-width="1.2" stroke-linecap="butt" stroke-linejoin="round" fill="none" stroke="#355f8d" d="M134.75098 44.161317V44.390436"/>
<path transform="matrix(1,0,0,-1,0,177.04062)" stroke-width="1.2" stroke-linecap="butt" stroke-linejoin="round" fill="none" stroke="#355f8d" d="M180.76866 45.781164V46.026689"/>
<path transform="matrix(1,0,0,-1,0,177.04062)" stroke-width="1.2" stroke-linecap="butt" stroke-linejoin="round" fill="none" stroke="#355f8d" d="M208.37926 50.919424V51.212938"/>
<path transform="matrix(1,0,0,-1,0,177.04062)" stroke-width="1.2" stroke-linecap="butt" stroke-linejoin="round" fill="none" stroke="#355f8d" d="M217.5828 59.966619V60.331834"/>
<path transform="matrix(1,0,0,-1,0,177.04062)" stroke-width="1.2" stroke-linecap="butt" stroke-linejoin="round" fill="none" stroke="#355f8d" d="M223.10492 85.58644V86.073719"/>
<path transform="matrix(1,0,0,-1,0,177.04062)" stroke-width="1.2" stroke-linecap="butt" stroke-linejoin="round" fill="none" stroke="#355f8d" d="M224.94562 115.48193V115.935009"/>
</g>
<g clip-path="url(#clip_12)">
<g clip-path="url(#clip_13)">
<path transform="matrix(1,0,0,-1,42.715627,133.66733)" d="M3 0H-3" fill="#355f8d"/>
<path transform="matrix(1,0,0,-1,42.715627,133.66733)" stroke-width="1" stroke-linecap="butt" stroke-linejoin="round" fill="none" stroke="#355f8d" d="M3 0H-3"/>
</g>
<g clip-path="url(#clip_14)">
<path transform="matrix(1,0,0,-1,134.75098,132.8793)" d="M3 0H-3" fill="#355f8d"/>
<path transform="matrix(1,0,0,-1,134.75098,132.8793)" stroke-width="1" stroke-linecap="butt" stroke-linejoin="round" fill="none" stroke="#355f8d" d="M3 0H-3"/>
</g>
<g clip-path="url(#clip_15)">
<path transform="matrix(1,0,0,-1,180.76865,131.25946)" d="M3 0H-3" fill="#355f8d"/>
<path transform="matrix(1,0,0,-1,180.76865,131.25946)" stroke-width="1" stroke-linecap="butt" stroke-linejoin="round" fill="none" stroke="#355f8d" d="M3 0H-3"/>
</g>
<g clip-path="url(#clip_16)">
<path transform="matrix(1,0,0,-1,208.37926,126.1212)" d="M3 0H-3" fill="#355f8d"/>
<path transform="matrix(1,0,0,-1,208.37926,126.1212)" stroke-width="1" stroke-linecap="butt" stroke-linejoin="round" fill="none" stroke="#355f8d" d="M3 0H-3"/>
</g>
<g clip-path="url(#clip_17)">
<path transform="matrix(1,0,0,-1,217.5828,117.074008)" d="M3 0H-3" fill="#355f8d"/>
<path transform="matrix(1,0,0,-1,217.5828,117.074008)" stroke-width="1" stroke-linecap="butt" stroke-linejoin="round" fill="none" stroke="#355f8d" d="M3 0H-3"/>
</g>
<g clip-path="url(#clip_18)">
<path transform="matrix(1,0,0,-1,223.10492,91.454189)" d="M3 0H-3" fill="#355f8d"/>
<path transform="matrix(1,0,0,-1,223.10492,91.454189)" stroke-width="1" stroke-linecap="butt" stroke-linejoin="round" fill="none" stroke="#355f8d" d="M3 0H-3"/>
</g>
<g clip-path="url(#clip_19)">
<path transform="matrix(1,0,0,-1,224.94564,61.558687)" d="M3 0H-3" fill="#355f8d"/>
<path transform="matrix(1,0,0,-1,224.94564,61.558687)" stroke-width="1" stroke-linecap="butt" stroke-linejoin="round" fill="none" stroke="#355f8d" d="M3 0H-3"/>
</g>
</g>
<g clip-path="url(#clip_20)">
<g clip-path="url(#clip_21)">
<path transform="matrix(1,0,0,-1,42.715627,133.44643)" d="M3 0H-3" fill="#355f8d"/>
<path transform="matrix(1,0,0,-1,42.715627,133.44643)" stroke-width="1" stroke-linecap="butt" stroke-linejoin="round" fill="none" stroke="#355f8d" d="M3 0H-3"/>
</g>
<g clip-path="url(#clip_22)">
<path transform="matrix(1,0,0,-1,134.75098,132.65018)" d="M3 0H-3" fill="#355f8d"/>
<path transform="matrix(1,0,0,-1,134.75098,132.65018)" stroke-width="1" stroke-linecap="butt" stroke-linejoin="round" fill="none" stroke="#355f8d" d="M3 0H-3"/>
</g>
<g clip-path="url(#clip_23)">
<path transform="matrix(1,0,0,-1,180.76865,131.01393)" d="M3 0H-3" fill="#355f8d"/>
<path transform="matrix(1,0,0,-1,180.76865,131.01393)" stroke-width="1" stroke-linecap="butt" stroke-linejoin="round" fill="none" stroke="#355f8d" d="M3 0H-3"/>
</g>
<g clip-path="url(#clip_24)">
<path transform="matrix(1,0,0,-1,208.37926,125.82768)" d="M3 0H-3" fill="#355f8d"/>
<path transform="matrix(1,0,0,-1,208.37926,125.82768)" stroke-width="1" stroke-linecap="butt" stroke-linejoin="round" fill="none" stroke="#355f8d" d="M3 0H-3"/>
</g>
<g clip-path="url(#clip_25)">
<path transform="matrix(1,0,0,-1,217.5828,116.708789)" d="M3 0H-3" fill="#355f8d"/>
<path transform="matrix(1,0,0,-1,217.5828,116.708789)" stroke-width="1" stroke-linecap="butt" stroke-linejoin="round" fill="none" stroke="#355f8d" d="M3 0H-3"/>
</g>
<g clip-path="url(#clip_26)">
<path transform="matrix(1,0,0,-1,223.10492,90.9669)" d="M3 0H-3" fill="#355f8d"/>
<path transform="matrix(1,0,0,-1,223.10492,90.9669)" stroke-width="1" stroke-linecap="butt" stroke-linejoin="round" fill="none" stroke="#355f8d" d="M3 0H-3"/>
</g>
<g clip-path="url(#clip_27)">
<path transform="matrix(1,0,0,-1,224.94564,61.105615)" d="M3 0H-3" fill="#355f8d"/>
<path transform="matrix(1,0,0,-1,224.94564,61.105615)" stroke-width="1" stroke-linecap="butt" stroke-linejoin="round" fill="none" stroke="#355f8d" d="M3 0H-3"/>
</g>
</g>
<g clip-path="url(#clip_28)">
<path transform="matrix(1,0,0,-1,0,177.04062)" stroke-width="1.2" stroke-linecap="butt" stroke-linejoin="round" fill="none" stroke="#d68612" d="M42.715627 43.87925V44.899293"/>
<path transform="matrix(1,0,0,-1,0,177.04062)" stroke-width="1.2" stroke-linecap="butt" stroke-linejoin="round" fill="none" stroke="#d68612" d="M134.75098 44.75473V45.831304"/>
<path transform="matrix(1,0,0,-1,0,177.04062)" stroke-width="1.2" stroke-linecap="butt" stroke-linejoin="round" fill="none" stroke="#d68612" d="M180.76866 47.039209V47.813154"/>
<path transform="matrix(1,0,0,-1,0,177.04062)" stroke-width="1.2" stroke-linecap="butt" stroke-linejoin="round" fill="none" stroke="#d68612" d="M208.37926 51.927698V53.215967"/>
<path transform="matrix(1,0,0,-1,0,177.04062)" stroke-width="1.2" stroke-linecap="butt" stroke-linejoin="round" fill="none" stroke="#d68612" d="M217.5828 61.211969V62.185728"/>
<path transform="matrix(1,0,0,-1,0,177.04062)" stroke-width="1.2" stroke-linecap="butt" stroke-linejoin="round" fill="none" stroke="#d68612" d="M223.10492 85.75695V86.687259"/>
<path transform="matrix(1,0,0,-1,0,177.04062)" stroke-width="1.2" stroke-linecap="butt" stroke-linejoin="round" fill="none" stroke="#d68612" d="M224.94562 152.4642V152.4642"/>
</g>
<g clip-path="url(#clip_29)">
<g clip-path="url(#clip_30)">
<path transform="matrix(1,0,0,-1,42.715627,133.16138)" d="M3 0H-3" fill="#d68612"/>
<path transform="matrix(1,0,0,-1,42.715627,133.16138)" stroke-width="1" stroke-linecap="butt" stroke-linejoin="round" fill="none" stroke="#d68612" d="M3 0H-3"/>
</g>
<g clip-path="url(#clip_31)">
<path transform="matrix(1,0,0,-1,134.75098,132.2859)" d="M3 0H-3" fill="#d68612"/>
<path transform="matrix(1,0,0,-1,134.75098,132.2859)" stroke-width="1" stroke-linecap="butt" stroke-linejoin="round" fill="none" stroke="#d68612" d="M3 0H-3"/>
</g>
<g clip-path="url(#clip_32)">
<path transform="matrix(1,0,0,-1,180.76865,130.00142)" d="M3 0H-3" fill="#d68612"/>
<path transform="matrix(1,0,0,-1,180.76865,130.00142)" stroke-width="1" stroke-linecap="butt" stroke-linejoin="round" fill="none" stroke="#d68612" d="M3 0H-3"/>
</g>
<g clip-path="url(#clip_33)">
<path transform="matrix(1,0,0,-1,208.37926,125.11293)" d="M3 0H-3" fill="#d68612"/>
<path transform="matrix(1,0,0,-1,208.37926,125.11293)" stroke-width="1" stroke-linecap="butt" stroke-linejoin="round" fill="none" stroke="#d68612" d="M3 0H-3"/>
</g>
<g clip-path="url(#clip_34)">
<path transform="matrix(1,0,0,-1,217.5828,115.82866)" d="M3 0H-3" fill="#d68612"/>
<path transform="matrix(1,0,0,-1,217.5828,115.82866)" stroke-width="1" stroke-linecap="butt" stroke-linejoin="round" fill="none" stroke="#d68612" d="M3 0H-3"/>
</g>
<g clip-path="url(#clip_35)">
<path transform="matrix(1,0,0,-1,223.10492,91.283679)" d="M3 0H-3" fill="#d68612"/>
<path transform="matrix(1,0,0,-1,223.10492,91.283679)" stroke-width="1" stroke-linecap="butt" stroke-linejoin="round" fill="none" stroke="#d68612" d="M3 0H-3"/>
</g>
<g clip-path="url(#clip_36)">
<path transform="matrix(1,0,0,-1,224.94564,24.576416)" d="M3 0H-3" fill="#d68612"/>
<path transform="matrix(1,0,0,-1,224.94564,24.576416)" stroke-width="1" stroke-linecap="butt" stroke-linejoin="round" fill="none" stroke="#d68612" d="M3 0H-3"/>
</g>
</g>
<g clip-path="url(#clip_37)">
<g clip-path="url(#clip_38)">
<path transform="matrix(1,0,0,-1,42.715627,132.14133)" d="M3 0H-3" fill="#d68612"/>
<path transform="matrix(1,0,0,-1,42.715627,132.14133)" stroke-width="1" stroke-linecap="butt" stroke-linejoin="round" fill="none" stroke="#d68612" d="M3 0H-3"/>
</g>
<g clip-path="url(#clip_39)">
<path transform="matrix(1,0,0,-1,134.75098,131.20932)" d="M3 0H-3" fill="#d68612"/>
<path transform="matrix(1,0,0,-1,134.75098,131.20932)" stroke-width="1" stroke-linecap="butt" stroke-linejoin="round" fill="none" stroke="#d68612" d="M3 0H-3"/>
</g>
<g clip-path="url(#clip_40)">
<path transform="matrix(1,0,0,-1,180.76865,129.22747)" d="M3 0H-3" fill="#d68612"/>
<path transform="matrix(1,0,0,-1,180.76865,129.22747)" stroke-width="1" stroke-linecap="butt" stroke-linejoin="round" fill="none" stroke="#d68612" d="M3 0H-3"/>
</g>
<g clip-path="url(#clip_41)">
<path transform="matrix(1,0,0,-1,208.37926,123.82465)" d="M3 0H-3" fill="#d68612"/>
<path transform="matrix(1,0,0,-1,208.37926,123.82465)" stroke-width="1" stroke-linecap="butt" stroke-linejoin="round" fill="none" stroke="#d68612" d="M3 0H-3"/>
</g>
<g clip-path="url(#clip_42)">
<path transform="matrix(1,0,0,-1,217.5828,114.85489)" d="M3 0H-3" fill="#d68612"/>
<path transform="matrix(1,0,0,-1,217.5828,114.85489)" stroke-width="1" stroke-linecap="butt" stroke-linejoin="round" fill="none" stroke="#d68612" d="M3 0H-3"/>
</g>
<g clip-path="url(#clip_43)">
<path transform="matrix(1,0,0,-1,223.10492,90.353359)" d="M3 0H-3" fill="#d68612"/>
<path transform="matrix(1,0,0,-1,223.10492,90.353359)" stroke-width="1" stroke-linecap="butt" stroke-linejoin="round" fill="none" stroke="#d68612" d="M3 0H-3"/>
</g>
<g clip-path="url(#clip_44)">
<path transform="matrix(1,0,0,-1,224.94564,24.576409)" d="M3 0H-3" fill="#d68612"/>
<path transform="matrix(1,0,0,-1,224.94564,24.576409)" stroke-width="1" stroke-linecap="butt" stroke-linejoin="round" fill="none" stroke="#d68612" d="M3 0H-3"/>
</g>
</g>
<g clip-path="url(#clip_45)">
<path transform="matrix(1,0,0,-1,0,177.04062)" stroke-width="1.2" stroke-linecap="square" stroke-linejoin="round" fill="none" stroke="#355f8d" d="M42.715627 43.483747 134.75098 44.275876 180.76866 45.903928 208.37926 51.066179 217.5828 60.149225 223.10492 85.83008 224.94562 115.70847"/>
<g clip-path="url(#clip_46)">
<path transform="matrix(1,0,0,-1,42.715627,133.55687)" d="M0-2C.530406-2 1.03916-1.789267 1.414214-1.414214 1.789267-1.03916 2-.530406 2 0 2 .530406 1.789267 1.03916 1.414214 1.414214 1.03916 1.789267 .530406 2 0 2-.530406 2-1.03916 1.789267-1.414214 1.414214-1.789267 1.03916-2 .530406-2 0-2-.530406-1.789267-1.03916-1.414214-1.414214-1.03916-1.789267-.530406-2 0-2Z" fill="#355f8d"/>
<path transform="matrix(1,0,0,-1,42.715627,133.55687)" stroke-width="1" stroke-linecap="butt" stroke-linejoin="round" fill="none" stroke="#355f8d" d="M0-2C.530406-2 1.03916-1.789267 1.414214-1.414214 1.789267-1.03916 2-.530406 2 0 2 .530406 1.789267 1.03916 1.414214 1.414214 1.03916 1.789267 .530406 2 0 2-.530406 2-1.03916 1.789267-1.414214 1.414214-1.789267 1.03916-2 .530406-2 0-2-.530406-1.789267-1.03916-1.414214-1.414214-1.03916-1.789267-.530406-2 0-2Z"/>
</g>
<g clip-path="url(#clip_47)">
<path transform="matrix(1,0,0,-1,134.75098,132.76474)" d="M0-2C.530406-2 1.03916-1.789267 1.414214-1.414214 1.789267-1.03916 2-.530406 2 0 2 .530406 1.789267 1.03916 1.414214 1.414214 1.03916 1.789267 .530406 2 0 2-.530406 2-1.03916 1.789267-1.414214 1.414214-1.789267 1.03916-2 .530406-2 0-2-.530406-1.789267-1.03916-1.414214-1.414214-1.03916-1.789267-.530406-2 0-2Z" fill="#355f8d"/>
<path transform="matrix(1,0,0,-1,134.75098,132.76474)" stroke-width="1" stroke-linecap="butt" stroke-linejoin="round" fill="none" stroke="#355f8d" d="M0-2C.530406-2 1.03916-1.789267 1.414214-1.414214 1.789267-1.03916 2-.530406 2 0 2 .530406 1.789267 1.03916 1.414214 1.414214 1.03916 1.789267 .530406 2 0 2-.530406 2-1.03916 1.789267-1.414214 1.414214-1.789267 1.03916-2 .530406-2 0-2-.530406-1.789267-1.03916-1.414214-1.414214-1.03916-1.789267-.530406-2 0-2Z"/>
</g>
<g clip-path="url(#clip_48)">
<path transform="matrix(1,0,0,-1,180.76865,131.13669)" d="M0-2C.530406-2 1.03916-1.789267 1.414214-1.414214 1.789267-1.03916 2-.530406 2 0 2 .530406 1.789267 1.03916 1.414214 1.414214 1.03916 1.789267 .530406 2 0 2-.530406 2-1.03916 1.789267-1.414214 1.414214-1.789267 1.03916-2 .530406-2 0-2-.530406-1.789267-1.03916-1.414214-1.414214-1.03916-1.789267-.530406-2 0-2Z" fill="#355f8d"/>
<path transform="matrix(1,0,0,-1,180.76865,131.13669)" stroke-width="1" stroke-linecap="butt" stroke-linejoin="round" fill="none" stroke="#355f8d" d="M0-2C.530406-2 1.03916-1.789267 1.414214-1.414214 1.789267-1.03916 2-.530406 2 0 2 .530406 1.789267 1.03916 1.414214 1.414214 1.03916 1.789267 .530406 2 0 2-.530406 2-1.03916 1.789267-1.414214 1.414214-1.789267 1.03916-2 .530406-2 0-2-.530406-1.789267-1.03916-1.414214-1.414214-1.03916-1.789267-.530406-2 0-2Z"/>
</g>
<g clip-path="url(#clip_49)">
<path transform="matrix(1,0,0,-1,208.37926,125.974437)" d="M0-2C.530406-2 1.03916-1.789267 1.414214-1.414214 1.789267-1.03916 2-.530406 2 0 2 .530406 1.789267 1.03916 1.414214 1.414214 1.03916 1.789267 .530406 2 0 2-.530406 2-1.03916 1.789267-1.414214 1.414214-1.789267 1.03916-2 .530406-2 0-2-.530406-1.789267-1.03916-1.414214-1.414214-1.03916-1.789267-.530406-2 0-2Z" fill="#355f8d"/>
<path transform="matrix(1,0,0,-1,208.37926,125.974437)" stroke-width="1" stroke-linecap="butt" stroke-linejoin="round" fill="none" stroke="#355f8d" d="M0-2C.530406-2 1.03916-1.789267 1.414214-1.414214 1.789267-1.03916 2-.530406 2 0 2 .530406 1.789267 1.03916 1.414214 1.414214 1.03916 1.789267 .530406 2 0 2-.530406 2-1.03916 1.789267-1.414214 1.414214-1.789267 1.03916-2 .530406-2 0-2-.530406-1.789267-1.03916-1.414214-1.414214-1.03916-1.789267-.530406-2 0-2Z"/>
</g>
<g clip-path="url(#clip_50)">
<path transform="matrix(1,0,0,-1,217.5828,116.89139)" d="M0-2C.530406-2 1.03916-1.789267 1.414214-1.414214 1.789267-1.03916 2-.530406 2 0 2 .530406 1.789267 1.03916 1.414214 1.414214 1.03916 1.789267 .530406 2 0 2-.530406 2-1.03916 1.789267-1.414214 1.414214-1.789267 1.03916-2 .530406-2 0-2-.530406-1.789267-1.03916-1.414214-1.414214-1.03916-1.789267-.530406-2 0-2Z" fill="#355f8d"/>
<path transform="matrix(1,0,0,-1,217.5828,116.89139)" stroke-width="1" stroke-linecap="butt" stroke-linejoin="round" fill="none" stroke="#355f8d" d="M0-2C.530406-2 1.03916-1.789267 1.414214-1.414214 1.789267-1.03916 2-.530406 2 0 2 .530406 1.789267 1.03916 1.414214 1.414214 1.03916 1.789267 .530406 2 0 2-.530406 2-1.03916 1.789267-1.414214 1.414214-1.789267 1.03916-2 .530406-2 0-2-.530406-1.789267-1.03916-1.414214-1.414214-1.03916-1.789267-.530406-2 0-2Z"/>
</g>
<g clip-path="url(#clip_51)">
<path transform="matrix(1,0,0,-1,223.10492,91.21054)" d="M0-2C.530406-2 1.03916-1.789267 1.414214-1.414214 1.789267-1.03916 2-.530406 2 0 2 .530406 1.789267 1.03916 1.414214 1.414214 1.03916 1.789267 .530406 2 0 2-.530406 2-1.03916 1.789267-1.414214 1.414214-1.789267 1.03916-2 .530406-2 0-2-.530406-1.789267-1.03916-1.414214-1.414214-1.03916-1.789267-.530406-2 0-2Z" fill="#355f8d"/>
<path transform="matrix(1,0,0,-1,223.10492,91.21054)" stroke-width="1" stroke-linecap="butt" stroke-linejoin="round" fill="none" stroke="#355f8d" d="M0-2C.530406-2 1.03916-1.789267 1.414214-1.414214 1.789267-1.03916 2-.530406 2 0 2 .530406 1.789267 1.03916 1.414214 1.414214 1.03916 1.789267 .530406 2 0 2-.530406 2-1.03916 1.789267-1.414214 1.414214-1.789267 1.03916-2 .530406-2 0-2-.530406-1.789267-1.03916-1.414214-1.414214-1.03916-1.789267-.530406-2 0-2Z"/>
</g>
<g clip-path="url(#clip_52)">
<path transform="matrix(1,0,0,-1,224.94564,61.332147)" d="M0-2C.530406-2 1.03916-1.789267 1.414214-1.414214 1.789267-1.03916 2-.530406 2 0 2 .530406 1.789267 1.03916 1.414214 1.414214 1.03916 1.789267 .530406 2 0 2-.530406 2-1.03916 1.789267-1.414214 1.414214-1.789267 1.03916-2 .530406-2 0-2-.530406-1.789267-1.03916-1.414214-1.414214-1.03916-1.789267-.530406-2 0-2Z" fill="#355f8d"/>
<path transform="matrix(1,0,0,-1,224.94564,61.332147)" stroke-width="1" stroke-linecap="butt" stroke-linejoin="round" fill="none" stroke="#355f8d" d="M0-2C.530406-2 1.03916-1.789267 1.414214-1.414214 1.789267-1.03916 2-.530406 2 0 2 .530406 1.789267 1.03916 1.414214 1.414214 1.03916 1.789267 .530406 2 0 2-.530406 2-1.03916 1.789267-1.414214 1.414214-1.789267 1.03916-2 .530406-2 0-2-.530406-1.789267-1.03916-1.414214-1.414214-1.03916-1.789267-.530406-2 0-2Z"/>
</g>
</g>
<g clip-path="url(#clip_53)">
<path transform="matrix(1,0,0,-1,0,177.04062)" stroke-width="1.2" stroke-linecap="square" stroke-linejoin="round" fill="none" stroke="#d68612" d="M42.715627 44.38927 134.75098 45.293016 180.76866 47.42618 208.37926 52.57183 217.5828 61.69885 223.10492 86.2221 224.94562 152.4642"/>
<g clip-path="url(#clip_54)">
<path transform="matrix(1,0,0,-1,42.715627,132.65135)" d="M0-2C.530406-2 1.03916-1.789267 1.414214-1.414214 1.789267-1.03916 2-.530406 2 0 2 .530406 1.789267 1.03916 1.414214 1.414214 1.03916 1.789267 .530406 2 0 2-.530406 2-1.03916 1.789267-1.414214 1.414214-1.789267 1.03916-2 .530406-2 0-2-.530406-1.789267-1.03916-1.414214-1.414214-1.03916-1.789267-.530406-2 0-2Z" fill="#d68612"/>
<path transform="matrix(1,0,0,-1,42.715627,132.65135)" stroke-width="1" stroke-linecap="butt" stroke-linejoin="round" fill="none" stroke="#d68612" d="M0-2C.530406-2 1.03916-1.789267 1.414214-1.414214 1.789267-1.03916 2-.530406 2 0 2 .530406 1.789267 1.03916 1.414214 1.414214 1.03916 1.789267 .530406 2 0 2-.530406 2-1.03916 1.789267-1.414214 1.414214-1.789267 1.03916-2 .530406-2 0-2-.530406-1.789267-1.03916-1.414214-1.414214-1.03916-1.789267-.530406-2 0-2Z"/>
</g>
<g clip-path="url(#clip_55)">
<path transform="matrix(1,0,0,-1,134.75098,131.7476)" d="M0-2C.530406-2 1.03916-1.789267 1.414214-1.414214 1.789267-1.03916 2-.530406 2 0 2 .530406 1.789267 1.03916 1.414214 1.414214 1.03916 1.789267 .530406 2 0 2-.530406 2-1.03916 1.789267-1.414214 1.414214-1.789267 1.03916-2 .530406-2 0-2-.530406-1.789267-1.03916-1.414214-1.414214-1.03916-1.789267-.530406-2 0-2Z" fill="#d68612"/>
<path transform="matrix(1,0,0,-1,134.75098,131.7476)" stroke-width="1" stroke-linecap="butt" stroke-linejoin="round" fill="none" stroke="#d68612" d="M0-2C.530406-2 1.03916-1.789267 1.414214-1.414214 1.789267-1.03916 2-.530406 2 0 2 .530406 1.789267 1.03916 1.414214 1.414214 1.03916 1.789267 .530406 2 0 2-.530406 2-1.03916 1.789267-1.414214 1.414214-1.789267 1.03916-2 .530406-2 0-2-.530406-1.789267-1.03916-1.414214-1.414214-1.03916-1.789267-.530406-2 0-2Z"/>
</g>
<g clip-path="url(#clip_56)">
<path transform="matrix(1,0,0,-1,180.76865,129.61444)" d="M0-2C.530406-2 1.03916-1.789267 1.414214-1.414214 1.789267-1.03916 2-.530406 2 0 2 .530406 1.789267 1.03916 1.414214 1.414214 1.03916 1.789267 .530406 2 0 2-.530406 2-1.03916 1.789267-1.414214 1.414214-1.789267 1.03916-2 .530406-2 0-2-.530406-1.789267-1.03916-1.414214-1.414214-1.03916-1.789267-.530406-2 0-2Z" fill="#d68612"/>
<path transform="matrix(1,0,0,-1,180.76865,129.61444)" stroke-width="1" stroke-linecap="butt" stroke-linejoin="round" fill="none" stroke="#d68612" d="M0-2C.530406-2 1.03916-1.789267 1.414214-1.414214 1.789267-1.03916 2-.530406 2 0 2 .530406 1.789267 1.03916 1.414214 1.414214 1.03916 1.789267 .530406 2 0 2-.530406 2-1.03916 1.789267-1.414214 1.414214-1.789267 1.03916-2 .530406-2 0-2-.530406-1.789267-1.03916-1.414214-1.414214-1.03916-1.789267-.530406-2 0-2Z"/>
</g>
<g clip-path="url(#clip_57)">
<path transform="matrix(1,0,0,-1,208.37926,124.46879)" d="M0-2C.530406-2 1.03916-1.789267 1.414214-1.414214 1.789267-1.03916 2-.530406 2 0 2 .530406 1.789267 1.03916 1.414214 1.414214 1.03916 1.789267 .530406 2 0 2-.530406 2-1.03916 1.789267-1.414214 1.414214-1.789267 1.03916-2 .530406-2 0-2-.530406-1.789267-1.03916-1.414214-1.414214-1.03916-1.789267-.530406-2 0-2Z" fill="#d68612"/>
<path transform="matrix(1,0,0,-1,208.37926,124.46879)" stroke-width="1" stroke-linecap="butt" stroke-linejoin="round" fill="none" stroke="#d68612" d="M0-2C.530406-2 1.03916-1.789267 1.414214-1.414214 1.789267-1.03916 2-.530406 2 0 2 .530406 1.789267 1.03916 1.414214 1.414214 1.03916 1.789267 .530406 2 0 2-.530406 2-1.03916 1.789267-1.414214 1.414214-1.789267 1.03916-2 .530406-2 0-2-.530406-1.789267-1.03916-1.414214-1.414214-1.03916-1.789267-.530406-2 0-2Z"/>
</g>
<g clip-path="url(#clip_58)">
<path transform="matrix(1,0,0,-1,217.5828,115.341777)" d="M0-2C.530406-2 1.03916-1.789267 1.414214-1.414214 1.789267-1.03916 2-.530406 2 0 2 .530406 1.789267 1.03916 1.414214 1.414214 1.03916 1.789267 .530406 2 0 2-.530406 2-1.03916 1.789267-1.414214 1.414214-1.789267 1.03916-2 .530406-2 0-2-.530406-1.789267-1.03916-1.414214-1.414214-1.03916-1.789267-.530406-2 0-2Z" fill="#d68612"/>
<path transform="matrix(1,0,0,-1,217.5828,115.341777)" stroke-width="1" stroke-linecap="butt" stroke-linejoin="round" fill="none" stroke="#d68612" d="M0-2C.530406-2 1.03916-1.789267 1.414214-1.414214 1.789267-1.03916 2-.530406 2 0 2 .530406 1.789267 1.03916 1.414214 1.414214 1.03916 1.789267 .530406 2 0 2-.530406 2-1.03916 1.789267-1.414214 1.414214-1.789267 1.03916-2 .530406-2 0-2-.530406-1.789267-1.03916-1.414214-1.414214-1.03916-1.789267-.530406-2 0-2Z"/>
</g>
<g clip-path="url(#clip_59)">
<path transform="matrix(1,0,0,-1,223.10492,90.81852)" d="M0-2C.530406-2 1.03916-1.789267 1.414214-1.414214 1.789267-1.03916 2-.530406 2 0 2 .530406 1.789267 1.03916 1.414214 1.414214 1.03916 1.789267 .530406 2 0 2-.530406 2-1.03916 1.789267-1.414214 1.414214-1.789267 1.03916-2 .530406-2 0-2-.530406-1.789267-1.03916-1.414214-1.414214-1.03916-1.789267-.530406-2 0-2Z" fill="#d68612"/>
<path transform="matrix(1,0,0,-1,223.10492,90.81852)" stroke-width="1" stroke-linecap="butt" stroke-linejoin="round" fill="none" stroke="#d68612" d="M0-2C.530406-2 1.03916-1.789267 1.414214-1.414214 1.789267-1.03916 2-.530406 2 0 2 .530406 1.789267 1.03916 1.414214 1.414214 1.03916 1.789267 .530406 2 0 2-.530406 2-1.03916 1.789267-1.414214 1.414214-1.789267 1.03916-2 .530406-2 0-2-.530406-1.789267-1.03916-1.414214-1.414214-1.03916-1.789267-.530406-2 0-2Z"/>
</g>
<g clip-path="url(#clip_60)">
<path transform="matrix(1,0,0,-1,224.94564,24.576416)" d="M0-2C.530406-2 1.03916-1.789267 1.414214-1.414214 1.789267-1.03916 2-.530406 2 0 2 .530406 1.789267 1.03916 1.414214 1.414214 1.03916 1.789267 .530406 2 0 2-.530406 2-1.03916 1.789267-1.414214 1.414214-1.789267 1.03916-2 .530406-2 0-2-.530406-1.789267-1.03916-1.414214-1.414214-1.03916-1.789267-.530406-2 0-2Z" fill="#d68612"/>
<path transform="matrix(1,0,0,-1,224.94564,24.576416)" stroke-width="1" stroke-linecap="butt" stroke-linejoin="round" fill="none" stroke="#d68612" d="M0-2C.530406-2 1.03916-1.789267 1.414214-1.414214 1.789267-1.03916 2-.530406 2 0 2 .530406 1.789267 1.03916 1.414214 1.414214 1.03916 1.789267 .530406 2 0 2-.530406 2-1.03916 1.789267-1.414214 1.414214-1.789267 1.03916-2 .530406-2 0-2-.530406-1.789267-1.03916-1.414214-1.414214-1.03916-1.789267-.530406-2 0-2Z"/>
</g>
</g>
<path transform="matrix(1,0,0,-1,0,177.04062)" stroke-width=".8" stroke-linecap="square" stroke-miterlimit="10" stroke-linejoin="miter" fill="none" stroke="#5b6574" d="M42.715627 37.91875V157.91875"/>
<path transform="matrix(1,0,0,-1,0,177.04062)" stroke-width=".8" stroke-linecap="square" stroke-miterlimit="10" stroke-linejoin="miter" fill="none" stroke="#5b6574" d="M42.715627 37.91875H224.94562"/>
<text xml:space="preserve" transform="matrix(1 0 -0 1 47.830625 15.121872)" font-size="10" font-family="DejaVu Sans"><tspan y="-.40625" x="0 5.571289 11.689453 19.868165">Low-</tspan></text>
<text xml:space="preserve" transform="matrix(1 0 -0 1 47.830625 15.121872)" font-size="10" font-family="DejaVu Sans" font-style="italic"><tspan y="-.40625" x="23.476563">&#x03c4;</tspan></text>
<text xml:space="preserve" transform="matrix(1 0 -0 1 47.830625 15.121872)" font-size="10" font-family="DejaVu Sans"><tspan y="-.40625" x="29.49707 32.67578 38.17383 44.291994 50.629884 56.12793 62.280275 68.618167 72.53906 76.65039 82.77832 86.69922 89.47754 95.5957 101.93359 105.112308 109.01367 118.75488 124.90723 131.03516 137.37305 140.55176 148.93067 152.10938 157.31934 161.24024 167.58789"> concentration (mean &#x00b1; std)</tspan></text>
<g>
<path transform="matrix(1,0,0,-1,0,177.04062)" d="M48.665628 126.03125H103.05625C104.18958 126.03125 104.75625 126.597919 104.75625 127.73125V151.96875C104.75625 153.10208 104.18958 153.66875 103.05625 153.66875H48.665628C47.53229 153.66875 46.965627 153.10208 46.965627 151.96875V127.73125C46.965627 126.597919 47.53229 126.03125 48.665628 126.03125Z" fill="#ffffff" fill-opacity=".92"/>
<path transform="matrix(1,0,0,-1,0,177.04062)" stroke-width=".8" stroke-linecap="butt" stroke-miterlimit="10" stroke-linejoin="miter" fill="none" stroke="#d9d9d9" stroke-opacity=".92" d="M48.665628 126.03125H103.05625C104.18958 126.03125 104.75625 126.597919 104.75625 127.73125V151.96875C104.75625 153.10208 104.18958 153.66875 103.05625 153.66875H48.665628C47.53229 153.66875 46.965627 153.10208 46.965627 151.96875V127.73125C46.965627 126.597919 47.53229 126.03125 48.665628 126.03125Z"/>
</g>
<path transform="matrix(1,0,0,-1,0,177.04062)" stroke-width="1.2" stroke-linecap="butt" stroke-linejoin="round" fill="none" stroke="#355f8d" d="M58.440626 142.575V151.075"/>
<path transform="matrix(1,0,0,-1,0,177.04062)" d="M61.440626 142.575H55.440626" fill="#355f8d"/>
<path transform="matrix(1,0,0,-1,0,177.04062)" stroke-width="1" stroke-linecap="butt" stroke-linejoin="round" fill="none" stroke="#355f8d" d="M61.440626 142.575H55.440626"/>
<path transform="matrix(1,0,0,-1,0,177.04062)" d="M61.440626 151.075H55.440626" fill="#355f8d"/>
<path transform="matrix(1,0,0,-1,0,177.04062)" stroke-width="1" stroke-linecap="butt" stroke-linejoin="round" fill="none" stroke="#355f8d" d="M61.440626 151.075H55.440626"/>
<path transform="matrix(1,0,0,-1,0,177.04062)" stroke-width="1.2" stroke-linecap="square" stroke-linejoin="round" fill="none" stroke="#355f8d" d="M49.940626 146.825H66.94063"/>
<path transform="matrix(1,0,0,-1,0,177.04062)" d="M58.440626 144.825C58.97103 144.825 59.479787 145.03574 59.85484 145.41078 60.229894 145.78585 60.440626 146.2946 60.440626 146.825 60.440626 147.35541 60.229894 147.86417 59.85484 148.23921 59.479787 148.61428 58.97103 148.825 58.440626 148.825 57.910219 148.825 57.401468 148.61428 57.02641 148.23921 56.65136 147.86417 56.440626 147.35541 56.440626 146.825 56.440626 146.2946 56.65136 145.78585 57.02641 145.41078 57.401468 145.03574 57.910219 144.825 58.440626 144.825Z" fill="#355f8d"/>
<path transform="matrix(1,0,0,-1,0,177.04062)" stroke-width="1" stroke-linecap="butt" stroke-linejoin="round" fill="none" stroke="#355f8d" d="M58.440626 144.825C58.97103 144.825 59.479787 145.03574 59.85484 145.41078 60.229894 145.78585 60.440626 146.2946 60.440626 146.825 60.440626 147.35541 60.229894 147.86417 59.85484 148.23921 59.479787 148.61428 58.97103 148.825 58.440626 148.825 57.910219 148.825 57.401468 148.61428 57.02641 148.23921 56.65136 147.86417 56.440626 147.35541 56.440626 146.825 56.440626 146.2946 56.65136 145.78585 57.02641 145.41078 57.401468 145.03574 57.910219 144.825 58.440626 144.825Z"/>
<text xml:space="preserve" transform="matrix(1 0 -0 1 70.765628 33.190614)" font-size="8.5" font-family="DejaVu Sans"><tspan y="0" x="0 6.5875 8.9505009 14.3480019 19.745503">Gibbs</tspan></text>
<path transform="matrix(1,0,0,-1,0,177.04062)" stroke-width="1.2" stroke-linecap="butt" stroke-linejoin="round" fill="none" stroke="#d68612" d="M58.440626 129.60625V138.10625"/>
<path transform="matrix(1,0,0,-1,0,177.04062)" d="M61.440626 129.60625H55.440626" fill="#d68612"/>
<path transform="matrix(1,0,0,-1,0,177.04062)" stroke-width="1" stroke-linecap="butt" stroke-linejoin="round" fill="none" stroke="#d68612" d="M61.440626 129.60625H55.440626"/>
<path transform="matrix(1,0,0,-1,0,177.04062)" d="M61.440626 138.10625H55.440626" fill="#d68612"/>
<path transform="matrix(1,0,0,-1,0,177.04062)" stroke-width="1" stroke-linecap="butt" stroke-linejoin="round" fill="none" stroke="#d68612" d="M61.440626 138.10625H55.440626"/>
<path transform="matrix(1,0,0,-1,0,177.04062)" stroke-width="1.2" stroke-linecap="square" stroke-linejoin="round" fill="none" stroke="#d68612" d="M49.940626 133.85625H66.94063"/>
<path transform="matrix(1,0,0,-1,0,177.04062)" d="M58.440626 131.85625C58.97103 131.85625 59.479787 132.06699 59.85484 132.44203 60.229894 132.8171 60.440626 133.32585 60.440626 133.85625 60.440626 134.38666 60.229894 134.89542 59.85484 135.27046 59.479787 135.64553 58.97103 135.85625 58.440626 135.85625 57.910219 135.85625 57.401468 135.64553 57.02641 135.27046 56.65136 134.89542 56.440626 134.38666 56.440626 133.85625 56.440626 133.32585 56.65136 132.8171 57.02641 132.44203 57.401468 132.06699 57.910219 131.85625 58.440626 131.85625Z" fill="#d68612"/>
<path transform="matrix(1,0,0,-1,0,177.04062)" stroke-width="1" stroke-linecap="butt" stroke-linejoin="round" fill="none" stroke="#d68612" d="M58.440626 131.85625C58.97103 131.85625 59.479787 132.06699 59.85484 132.44203 60.229894 132.8171 60.440626 133.32585 60.440626 133.85625 60.440626 134.38666 60.229894 134.89542 59.85484 135.27046 59.479787 135.64553 58.97103 135.85625 58.440626 135.85625 57.910219 135.85625 57.401468 135.64553 57.02641 135.27046 56.65136 134.89542 56.440626 134.38666 56.440626 133.85625 56.440626 133.32585 56.65136 132.8171 57.02641 132.44203 57.401468 132.06699 57.910219 131.85625 58.440626 131.85625Z"/>
<text xml:space="preserve" transform="matrix(1 0 -0 1 70.765628 46.159364)" font-size="8.5" font-family="DejaVu Sans"><tspan y="0" x="0 3.9435 7.4370005 12.647501 15.010501 20.399502 25.627003">Trained</tspan></text>
</svg>
